<svg xmlns="http://www.w3.org/2000/svg" xmlns:xlink="http://www.w3.org/1999/xlink" fill="none" version="1.1" width="192" height="32" viewBox="0 0 192 32"><defs><clipPath id="master_svg0_1077_10031"><rect x="0" y="0" width="192" height="32" rx="0"/></clipPath></defs><g clip-path="url(#master_svg0_1077_10031)"><g><path d="M11.262,29.00360107421875L0.00297226,22.50190107421875L0.00297226,18.38280107421875L11.2602,24.88300107421875L18.9507,20.44330107421875L18.9507,18.856201074218752L7.68163,12.35040107421875L11.2535,10.294021074218751L22.5203,16.79900107421875L22.5203,22.50530107421875L11.262,29.00360107421875ZM11.2602,7.12417107421875L3.5696,11.56389107421875L3.5696,13.15100107421875L14.8379,19.65680107421875L11.2661,21.71320107421875L0,15.20820107421875L0,9.50193107421875L11.2602,3.00360107421875L22.5211,9.50527107421875L22.5211,13.62440107421875L11.2602,7.12417107421875Z" fill-rule="evenodd" fill="#0084FF" fill-opacity="1"/></g><g><path d="M27.484541,23.7426L38.8468,23.7426L38.8468,22.4412L28.65506,22.4412L28.65506,20.1324L38.8468,20.1324L38.8468,19.220599999999997L27.484541,19.220599999999997L27.484541,16.735300000000002L41.0898,16.735300000000002L41.0898,26.2059L27.484541,26.2059L27.484541,23.7426ZM27,9.264710000000001L33.29359,9.264710000000001L33.29359,8.45588L28.03986,8.45588L28.03986,5.970589L40.823,5.970589L40.823,8.45588L35.36242,8.45588L35.36242,9.264710000000001L41.8575,9.264710000000001L41.8575,15.5L39.7995,15.5L39.7995,11.45588L35.36242,11.45588L35.36242,16.058799999999998L33.29359,16.058799999999998L33.29359,11.45588L29.05794,11.45588L29.05794,15.5L27,15.5L27,9.264710000000001ZM29.3846,14.19853L32.96694,14.19853L32.96694,15.8529L29.3846,15.8529L29.3846,14.19853ZM29.3846,11.97059L32.96694,11.97059L32.96694,13.59559L29.3846,13.59559L29.3846,11.97059ZM35.70541,14.19853L39.4674,14.19853L39.4674,15.8529L35.70541,15.8529L35.70541,14.19853ZM35.70541,11.97059L39.4674,11.97059L39.4674,13.59559L35.70541,13.59559L35.70541,11.97059ZM52.1635,6.91176L52.010999999999996,5.5L54.1779,5.5L54.3303,6.91176L58.076,6.91176L58.076,17.264699999999998L54.363,17.264699999999998Q54.8421,19.3015,55.6696,20.735300000000002L56.6714,18.0441L58.598600000000005,18.0441L57.3083,21.5L56.203199999999995,21.5Q57.1396,22.6176,58.4625,23.2059L58.4625,26.4338Q55.832899999999995,25.3015,54.2868,22.8824Q52.745999999999995,20.4632,52.1308,17.264699999999998L50.7425,17.264699999999998L50.7425,23.2941L53.334,23.2941L53.334,26.2059L48.602900000000005,26.2059L48.602900000000005,6.91176L52.1635,6.91176ZM45.7937,26.2059Q47.2963,22.1838,47.7318,16.404400000000003L45.4888,16.404400000000003Q45.1404,21.3309,43.349199999999996,26.2059L45.7937,26.2059ZM47.7318,15.36765L47.7318,12.507349999999999L43.501599999999996,11.17647L43.501599999999996,14.15441L47.7318,15.36765ZM47.699200000000005,10.139710000000001L47.699200000000005,7.02206L43.8337,5.786765L43.8337,8.83088L47.699200000000005,10.139710000000001ZM55.92,14.625L55.92,13.5L50.7425,13.5L50.7425,14.625L55.92,14.625ZM55.92,10.94853L55.92,9.55147L50.7425,9.55147L50.7425,10.94853L55.92,10.94853ZM60.7219,22.4412L61.8924,22.4412L64.767,15.8529L60.1013,15.8529L60.1013,12.963239999999999L75.1493,12.963239999999999L75.1493,15.8529L67.3258,15.8529L64.44579999999999,22.4412L71.7901,22.4412L70.73400000000001,19.095599999999997L73.17840000000001,19.095599999999997L75.1493,25.3529L60.7219,25.3529L60.7219,22.4412ZM61.2881,6.441177L73.9624,6.441177L73.9624,9.33088L61.2881,9.33088L61.2881,6.441177ZM76.8261,21.9338L83.1959,21.9338L83.1959,9.94118L77.68090000000001,9.94118L77.68090000000001,6.91176L91.0194,6.91176L91.0194,9.94118L85.5043,9.94118L85.5043,21.9338L91.8741,21.9338L91.8741,24.9632L76.8261,24.9632L76.8261,21.9338ZM93.5237,23.2941L98.1242,23.2941L98.1242,5.5L100.2638,5.5L100.2638,23.2941L102.1693,23.2941L102.1693,5.5L104.3089,5.5L104.3089,23.2941L108.9093,23.2941L108.9093,26.2059L93.5237,26.2059L93.5237,23.2941ZM96.0172,7.52941L97.3565,19.6176L95.1788,19.6176L93.8395,7.52941L96.0172,7.52941ZM106.4158,7.52941L108.5935,7.52941L107.2542,19.6176L105.0765,19.6176L106.4158,7.52941ZM124.9318,6.375001L124.9318,9.264710000000001L115.1757,9.264710000000001L114.9742,11.14706L123.8756,11.14706L123.059,23.3162L125.498,23.3162L125.498,26.2059L110.2758,26.2059L110.2758,23.3162L120.8486,23.3162L121.0174,20.558799999999998L111.9472,20.558799999999998L112.9816,9.264710000000001L110.842,9.264710000000001L110.842,6.375001L124.9318,6.375001ZM121.2188,17.7132L121.4693,13.99265L114.7075,13.99265L114.408,17.7132L121.2188,17.7132ZM134.154,23.0368Q135.57,22.0294,136.22899999999998,20.7574Q136.893,19.485300000000002,137.05599999999998,17.904400000000003L134.1,17.904400000000003L134.1,15.13235L137.10500000000002,15.13235L137.10500000000002,11.257349999999999L134.44799999999998,11.257349999999999L134.44799999999998,8.47794L135.477,8.47794L135.036,5.5L137.024,5.5L137.475,8.47794L139.10899999999998,8.47794L139.561,5.5L141.602,5.5L141.15,8.47794L142.136,8.47794L142.136,11.257349999999999L139.245,11.257349999999999L139.245,15.13235L142.321,15.13235L142.321,17.904400000000003L139.47899999999998,17.904400000000003Q140.715,19.4191,141.423,21.4118Q142.136,23.4044,142.386,26.2059L140.279,26.2059Q140.149,24.4191,139.74599999999998,23.1176Q139.34300000000002,21.8162,138.59199999999998,20.852899999999998Q137.426,24.6176,134.154,26.5L134.154,23.0368ZM127.164,22.4338L127.866,22.25L127.866,8.56618L127.164,8.56618L127.164,5.970589L134.31799999999998,5.970589L134.31799999999998,8.56618L133.615,8.56618L133.615,26.2279L131.628,26.2279L131.628,24.0882L127.164,25.2426L127.164,22.4338ZM131.628,21.2868L131.628,18.9191L129.853,18.9191L129.853,21.75L131.628,21.2868ZM131.628,16.3235L131.628,13.74265L129.853,13.74265L129.853,16.3235L131.628,16.3235ZM131.628,11.14706L131.628,8.56618L129.853,8.56618L129.853,11.14706L131.628,11.14706ZM144.39,6.352942L158.708,6.352942L158.708,26.2059L156.585,26.2059L156.585,24.7059L154.892,24.7059L153.781,20.1176L152.676,24.7059L150.422,24.7059L149.317,20.1176L148.20600000000002,24.7059L146.513,24.7059L146.513,26.2059L144.39,26.2059L144.39,6.352942ZM148.14600000000002,16.779400000000003L146.546,10.20588L148.527,10.20588L149.41500000000002,14.04412L150.324,10.20588L152.975,10.20588L153.885,14.06618L154.788,10.20588L156.585,10.20588L156.585,9.264710000000001L146.513,9.264710000000001L146.513,23.5294L148.14600000000002,16.779400000000003ZM151.543,21.2059L152.62099999999998,16.779400000000003L151.582,12.55147L150.50900000000001,16.933799999999998L151.543,21.2059ZM156.585,23.5294L156.585,10.41177L154.973,16.933799999999998L156.585,23.5294ZM160.423,16.2941L167.027,16.2941L167.027,8.81618L160.777,8.81618L160.777,5.970589L175.455,5.970589L175.455,8.81618L169.205,8.81618L169.205,16.2941L175.809,16.2941L175.809,19.147100000000002L169.205,19.147100000000002L169.205,26.2059L167.027,26.2059L167.027,19.147100000000002L160.423,19.147100000000002L160.423,16.2941ZM163.984,10.20588L165.04,15.26471L162.813,15.26471L161.762,10.20588L163.984,10.20588ZM172.248,10.20588L174.469,10.20588L173.419,15.26471L171.192,15.26471L172.248,10.20588ZM191.113,26.2059L178.569,26.2059L178.569,16.3015L191.113,16.3015L191.113,26.2059ZM177.899,11.55147L179.375,11.55147L182.298,5.5L185.162,5.5L182.227,11.55147L188.227,11.55147L187.133,8.67647L189.822,8.67647L192,14.44118L177.899,14.44118L177.899,11.55147ZM188.919,23.3824L188.919,19.147100000000002L180.763,19.147100000000002L180.763,23.3824L188.919,23.3824Z" fill="#0084FF" fill-opacity="1"/></g></g></svg>